<svg xmlns="http://www.w3.org/2000/svg" viewBox="0 0 886 571" width="886" height="571" font-family="Segoe UI, Ubuntu, sans-serif">
<text x="22" y="34" font-size="20" font-weight="700" fill="#1f2328">423 contributions</text>
<text x="22" y="54" font-size="12" fill="#57606a">2025-07-20 → 2026-07-22 · rendered as an isometric skyline</text>
<defs><g id="b0-3"><path d="M-14 7v3l14 7v-3z" fill="#9b9c9e"/><path d="M14 7v3l-14 7v-3z" fill="#c1c2c5"/><path d="M0 0l14 7-14 7-14-7z" fill="#ebedf0" stroke="#d0d7de" stroke-width="0.5"/></g><g id="b1-17"><path d="M-14 7v17l14 7v-17z" fill="#669a6f"/><path d="M14 7v17l-14 7v-17z" fill="#7fbf8a"/><path d="M0 0l14 7-14 7-14-7z" fill="#9be9a8"/></g><g id="b1-23"><path d="M-14 7v23l14 7v-23z" fill="#669a6f"/><path d="M14 7v23l-14 7v-23z" fill="#7fbf8a"/><path d="M0 0l14 7-14 7-14-7z" fill="#9be9a8"/></g><g id="b1-32"><path d="M-14 7v32l14 7v-32z" fill="#669a6f"/><path d="M14 7v32l-14 7v-32z" fill="#7fbf8a"/><path d="M0 0l14 7-14 7-14-7z" fill="#9be9a8"/></g><g id="b1-28"><path d="M-14 7v28l14 7v-28z" fill="#669a6f"/><path d="M14 7v28l-14 7v-28z" fill="#7fbf8a"/><path d="M0 0l14 7-14 7-14-7z" fill="#9be9a8"/></g><g id="b2-34"><path d="M-14 7v34l14 7v-34z" fill="#2a8141"/><path d="M14 7v34l-14 7v-34z" fill="#34a151"/><path d="M0 0l14 7-14 7-14-7z" fill="#40c463"/></g><g id="b2-37"><path d="M-14 7v37l14 7v-37z" fill="#2a8141"/><path d="M14 7v37l-14 7v-37z" fill="#34a151"/><path d="M0 0l14 7-14 7-14-7z" fill="#40c463"/></g><g id="b2-41"><path d="M-14 7v41l14 7v-41z" fill="#2a8141"/><path d="M14 7v41l-14 7v-41z" fill="#34a151"/><path d="M0 0l14 7-14 7-14-7z" fill="#40c463"/></g><g id="b3-47"><path d="M-14 7v47l14 7v-47z" fill="#206a33"/><path d="M14 7v47l-14 7v-47z" fill="#278440"/><path d="M0 0l14 7-14 7-14-7z" fill="#30a14e"/></g><g id="b4-49"><path d="M-14 7v49l14 7v-49z" fill="#164926"/><path d="M14 7v49l-14 7v-49z" fill="#1b5a2f"/><path d="M0 0l14 7-14 7-14-7z" fill="#216e39"/></g><g id="b4-48"><path d="M-14 7v48l14 7v-48z" fill="#164926"/><path d="M14 7v48l-14 7v-48z" fill="#1b5a2f"/><path d="M0 0l14 7-14 7-14-7z" fill="#216e39"/></g><g id="b2-39"><path d="M-14 7v39l14 7v-39z" fill="#2a8141"/><path d="M14 7v39l-14 7v-39z" fill="#34a151"/><path d="M0 0l14 7-14 7-14-7z" fill="#40c463"/></g><g id="b3-44"><path d="M-14 7v44l14 7v-44z" fill="#206a33"/><path d="M14 7v44l-14 7v-44z" fill="#278440"/><path d="M0 0l14 7-14 7-14-7z" fill="#30a14e"/></g><g id="b4-81"><path d="M-14 7v81l14 7v-81z" fill="#164926"/><path d="M14 7v81l-14 7v-81z" fill="#1b5a2f"/><path d="M0 0l14 7-14 7-14-7z" fill="#216e39"/></g><g id="b4-52"><path d="M-14 7v52l14 7v-52z" fill="#164926"/><path d="M14 7v52l-14 7v-52z" fill="#1b5a2f"/><path d="M0 0l14 7-14 7-14-7z" fill="#216e39"/></g></defs>
<text x="736" y="40" font-size="11" fill="#57606a" text-anchor="end">less</text><path d="M739 39v4l9 4.5v-4z" fill="#9b9c9e"/><path d="M757 39v4l-9 4.5v-4z" fill="#c1c2c5"/><path d="M748 34.5l9 4.5-9 4.5-9-4.5z" fill="#ebedf0" stroke="#d0d7de" stroke-width="0.5"/><path d="M761 39v4l9 4.5v-4z" fill="#669a6f"/><path d="M779 39v4l-9 4.5v-4z" fill="#7fbf8a"/><path d="M770 34.5l9 4.5-9 4.5-9-4.5z" fill="#9be9a8"/><path d="M783 39v4l9 4.5v-4z" fill="#2a8141"/><path d="M801 39v4l-9 4.5v-4z" fill="#34a151"/><path d="M792 34.5l9 4.5-9 4.5-9-4.5z" fill="#40c463"/><path d="M805 39v4l9 4.5v-4z" fill="#206a33"/><path d="M823 39v4l-9 4.5v-4z" fill="#278440"/><path d="M814 34.5l9 4.5-9 4.5-9-4.5z" fill="#30a14e"/><path d="M827 39v4l9 4.5v-4z" fill="#164926"/><path d="M845 39v4l-9 4.5v-4z" fill="#1b5a2f"/><path d="M836 34.5l9 4.5-9 4.5-9-4.5z" fill="#216e39"/><text x="858" y="46" font-size="11" fill="#57606a">more</text>
<use href="#b0-3" x="118" y="93"/><use href="#b0-3" x="104" y="100"/><use href="#b0-3" x="132" y="100"/><use href="#b0-3" x="90" y="107"/><use href="#b1-17" x="118" y="93"/><use href="#b0-3" x="146" y="107"/><use href="#b0-3" x="76" y="114"/><use href="#b1-17" x="104" y="100"/><use href="#b0-3" x="132" y="114"/><use href="#b0-3" x="160" y="114"/><use href="#b0-3" x="62" y="121"/><use href="#b0-3" x="90" y="121"/><use href="#b0-3" x="118" y="121"/><use href="#b0-3" x="146" y="121"/><use href="#b0-3" x="174" y="121"/><use href="#b0-3" x="48" y="128"/><use href="#b0-3" x="76" y="128"/><use href="#b0-3" x="104" y="128"/><use href="#b0-3" x="132" y="128"/><use href="#b0-3" x="160" y="128"/><use href="#b0-3" x="188" y="128"/><use href="#b0-3" x="34" y="135"/><use href="#b0-3" x="62" y="135"/><use href="#b0-3" x="90" y="135"/><use href="#b1-17" x="118" y="121"/><use href="#b0-3" x="146" y="135"/><use href="#b1-23" x="174" y="115"/><use href="#b1-23" x="202" y="115"/><use href="#b0-3" x="48" y="142"/><use href="#b0-3" x="76" y="142"/><use href="#b0-3" x="104" y="142"/><use href="#b0-3" x="132" y="142"/><use href="#b0-3" x="160" y="142"/><use href="#b0-3" x="188" y="142"/><use href="#b0-3" x="216" y="142"/><use href="#b0-3" x="62" y="149"/><use href="#b0-3" x="90" y="149"/><use href="#b0-3" x="118" y="149"/><use href="#b0-3" x="146" y="149"/><use href="#b1-32" x="174" y="120"/><use href="#b0-3" x="202" y="149"/><use href="#b0-3" x="230" y="149"/><use href="#b0-3" x="76" y="156"/><use href="#b0-3" x="104" y="156"/><use href="#b1-23" x="132" y="136"/><use href="#b0-3" x="160" y="156"/><use href="#b1-28" x="188" y="131"/><use href="#b0-3" x="216" y="156"/><use href="#b1-23" x="244" y="136"/><use href="#b0-3" x="90" y="163"/><use href="#b0-3" x="118" y="163"/><use href="#b1-17" x="146" y="149"/><use href="#b1-28" x="174" y="138"/><use href="#b0-3" x="202" y="163"/><use href="#b2-34" x="230" y="132"/><use href="#b0-3" x="258" y="163"/><use href="#b2-37" x="104" y="136"/><use href="#b0-3" x="132" y="170"/><use href="#b0-3" x="160" y="170"/><use href="#b0-3" x="188" y="170"/><use href="#b2-41" x="216" y="132"/><use href="#b0-3" x="244" y="170"/><use href="#b0-3" x="272" y="170"/><use href="#b0-3" x="118" y="177"/><use href="#b0-3" x="146" y="177"/><use href="#b0-3" x="174" y="177"/><use href="#b0-3" x="202" y="177"/><use href="#b0-3" x="230" y="177"/><use href="#b0-3" x="258" y="177"/><use href="#b0-3" x="286" y="177"/><use href="#b0-3" x="132" y="184"/><use href="#b0-3" x="160" y="184"/><use href="#b0-3" x="188" y="184"/><use href="#b0-3" x="216" y="184"/><use href="#b0-3" x="244" y="184"/><use href="#b0-3" x="272" y="184"/><use href="#b1-32" x="300" y="155"/><use href="#b2-41" x="146" y="153"/><use href="#b0-3" x="174" y="191"/><use href="#b1-28" x="202" y="166"/><use href="#b0-3" x="230" y="191"/><use href="#b0-3" x="258" y="191"/><use href="#b2-34" x="286" y="160"/><use href="#b0-3" x="314" y="191"/><use href="#b0-3" x="160" y="198"/><use href="#b0-3" x="188" y="198"/><use href="#b0-3" x="216" y="198"/><use href="#b0-3" x="244" y="198"/><use href="#b0-3" x="272" y="198"/><use href="#b0-3" x="300" y="198"/><use href="#b0-3" x="328" y="198"/><use href="#b0-3" x="174" y="205"/><use href="#b0-3" x="202" y="205"/><use href="#b0-3" x="230" y="205"/><use href="#b2-34" x="258" y="174"/><use href="#b0-3" x="286" y="205"/><use href="#b1-17" x="314" y="191"/><use href="#b0-3" x="342" y="205"/><use href="#b0-3" x="188" y="212"/><use href="#b0-3" x="216" y="212"/><use href="#b0-3" x="244" y="212"/><use href="#b0-3" x="272" y="212"/><use href="#b1-32" x="300" y="183"/><use href="#b0-3" x="328" y="212"/><use href="#b0-3" x="356" y="212"/><use href="#b1-17" x="202" y="205"/><use href="#b0-3" x="230" y="219"/><use href="#b0-3" x="258" y="219"/><use href="#b1-17" x="286" y="205"/><use href="#b0-3" x="314" y="219"/><use href="#b3-47" x="342" y="175"/><use href="#b1-17" x="370" y="205"/><use href="#b1-32" x="216" y="197"/><use href="#b0-3" x="244" y="226"/><use href="#b3-47" x="272" y="182"/><use href="#b1-17" x="300" y="212"/><use href="#b2-34" x="356" y="195"/><use href="#b0-3" x="384" y="226"/><use href="#b1-23" x="230" y="213"/><use href="#b0-3" x="286" y="233"/><use href="#b0-3" x="314" y="233"/><use href="#b1-23" x="342" y="213"/><use href="#b1-28" x="370" y="208"/><use href="#b0-3" x="398" y="233"/><use href="#b2-39" x="244" y="204"/><use href="#b0-3" x="272" y="240"/><use href="#b0-3" x="300" y="240"/><use href="#b0-3" x="328" y="240"/><use href="#b1-23" x="356" y="220"/><use href="#b0-3" x="384" y="240"/><use href="#b0-3" x="412" y="240"/><use href="#b0-3" x="258" y="247"/><use href="#b0-3" x="286" y="247"/><use href="#b0-3" x="314" y="247"/><use href="#b1-17" x="342" y="233"/><use href="#b0-3" x="370" y="247"/><use href="#b1-17" x="398" y="233"/><use href="#b0-3" x="426" y="247"/><use href="#b1-23" x="272" y="234"/><use href="#b0-3" x="300" y="254"/><use href="#b0-3" x="328" y="254"/><use href="#b1-17" x="356" y="240"/><use href="#b1-17" x="384" y="240"/><use href="#b0-3" x="412" y="254"/><use href="#b0-3" x="440" y="254"/><use href="#b0-3" x="286" y="261"/><use href="#b0-3" x="314" y="261"/><use href="#b1-17" x="342" y="247"/><use href="#b0-3" x="370" y="261"/><use href="#b1-17" x="398" y="247"/><use href="#b0-3" x="426" y="261"/><use href="#b0-3" x="454" y="261"/><use href="#b1-17" x="300" y="254"/><use href="#b0-3" x="328" y="268"/><use href="#b0-3" x="356" y="268"/><use href="#b0-3" x="384" y="268"/><use href="#b0-3" x="412" y="268"/><use href="#b1-28" x="440" y="243"/><use href="#b0-3" x="468" y="268"/><use href="#b1-17" x="314" y="261"/><use href="#b0-3" x="342" y="275"/><use href="#b0-3" x="370" y="275"/><use href="#b0-3" x="398" y="275"/><use href="#b0-3" x="426" y="275"/><use href="#b0-3" x="454" y="275"/><use href="#b0-3" x="482" y="275"/><use href="#b0-3" x="328" y="282"/><use href="#b0-3" x="356" y="282"/><use href="#b0-3" x="384" y="282"/><use href="#b0-3" x="412" y="282"/><use href="#b0-3" x="440" y="282"/><use href="#b0-3" x="468" y="282"/><use href="#b0-3" x="496" y="282"/><use href="#b1-17" x="342" y="275"/><use href="#b0-3" x="370" y="289"/><use href="#b0-3" x="398" y="289"/><use href="#b0-3" x="426" y="289"/><use href="#b0-3" x="454" y="289"/><use href="#b0-3" x="482" y="289"/><use href="#b1-23" x="510" y="269"/><use href="#b0-3" x="356" y="296"/><use href="#b0-3" x="384" y="296"/><use href="#b0-3" x="412" y="296"/><use href="#b0-3" x="440" y="296"/><use href="#b0-3" x="468" y="296"/><use href="#b0-3" x="496" y="296"/><use href="#b0-3" x="524" y="296"/><use href="#b0-3" x="370" y="303"/><use href="#b0-3" x="398" y="303"/><use href="#b0-3" x="426" y="303"/><use href="#b0-3" x="454" y="303"/><use href="#b0-3" x="482" y="303"/><use href="#b0-3" x="510" y="303"/><use href="#b1-17" x="538" y="289"/><use href="#b0-3" x="384" y="310"/><use href="#b0-3" x="412" y="310"/><use href="#b1-17" x="440" y="296"/><use href="#b0-3" x="468" y="310"/><use href="#b0-3" x="496" y="310"/><use href="#b0-3" x="524" y="310"/><use href="#b1-17" x="552" y="296"/><use href="#b0-3" x="398" y="317"/><use href="#b1-17" x="426" y="303"/><use href="#b0-3" x="454" y="317"/><use href="#b0-3" x="482" y="317"/><use href="#b0-3" x="510" y="317"/><use href="#b3-44" x="538" y="276"/><use href="#b0-3" x="566" y="317"/><use href="#b0-3" x="412" y="324"/><use href="#b0-3" x="440" y="324"/><use href="#b1-23" x="468" y="304"/><use href="#b0-3" x="496" y="324"/><use href="#b0-3" x="524" y="324"/><use href="#b0-3" x="552" y="324"/><use href="#b0-3" x="580" y="324"/><use href="#b0-3" x="426" y="331"/><use href="#b1-23" x="454" y="311"/><use href="#b0-3" x="482" y="331"/><use href="#b0-3" x="510" y="331"/><use href="#b0-3" x="538" y="331"/><use href="#b0-3" x="566" y="331"/><use href="#b0-3" x="594" y="331"/><use href="#b0-3" x="440" y="338"/><use href="#b1-17" x="468" y="324"/><use href="#b1-17" x="496" y="324"/><use href="#b0-3" x="524" y="338"/><use href="#b0-3" x="552" y="338"/><use href="#b0-3" x="580" y="338"/><use href="#b0-3" x="608" y="338"/><use href="#b1-23" x="454" y="325"/><use href="#b0-3" x="482" y="345"/><use href="#b0-3" x="510" y="345"/><use href="#b0-3" x="538" y="345"/><use href="#b0-3" x="566" y="345"/><use href="#b0-3" x="594" y="345"/><use href="#b0-3" x="622" y="345"/><use href="#b0-3" x="468" y="352"/><use href="#b0-3" x="496" y="352"/><use href="#b0-3" x="524" y="352"/><use href="#b0-3" x="552" y="352"/><use href="#b0-3" x="580" y="352"/><use href="#b0-3" x="608" y="352"/><use href="#b0-3" x="636" y="352"/><use href="#b0-3" x="482" y="359"/><use href="#b0-3" x="510" y="359"/><use href="#b0-3" x="538" y="359"/><use href="#b0-3" x="566" y="359"/><use href="#b0-3" x="594" y="359"/><use href="#b0-3" x="622" y="359"/><use href="#b1-17" x="650" y="345"/><use href="#b0-3" x="496" y="366"/><use href="#b0-3" x="524" y="366"/><use href="#b0-3" x="552" y="366"/><use href="#b0-3" x="580" y="366"/><use href="#b0-3" x="608" y="366"/><use href="#b0-3" x="636" y="366"/><use href="#b0-3" x="664" y="366"/><use href="#b0-3" x="510" y="373"/><use href="#b0-3" x="538" y="373"/><use href="#b0-3" x="566" y="373"/><use href="#b0-3" x="594" y="373"/><use href="#b0-3" x="622" y="373"/><use href="#b0-3" x="650" y="373"/><use href="#b0-3" x="678" y="373"/><use href="#b0-3" x="524" y="380"/><use href="#b0-3" x="552" y="380"/><use href="#b0-3" x="580" y="380"/><use href="#b0-3" x="608" y="380"/><use href="#b0-3" x="636" y="380"/><use href="#b0-3" x="664" y="380"/><use href="#b0-3" x="692" y="380"/><use href="#b0-3" x="538" y="387"/><use href="#b0-3" x="566" y="387"/><use href="#b0-3" x="594" y="387"/><use href="#b0-3" x="622" y="387"/><use href="#b0-3" x="650" y="387"/><use href="#b0-3" x="678" y="387"/><use href="#b0-3" x="706" y="387"/><use href="#b0-3" x="552" y="394"/><use href="#b2-39" x="580" y="358"/><use href="#b0-3" x="608" y="394"/><use href="#b0-3" x="636" y="394"/><use href="#b0-3" x="664" y="394"/><use href="#b0-3" x="692" y="394"/><use href="#b0-3" x="720" y="394"/><use href="#b0-3" x="566" y="401"/><use href="#b0-3" x="594" y="401"/><use href="#b0-3" x="622" y="401"/><use href="#b0-3" x="650" y="401"/><use href="#b0-3" x="678" y="401"/><use href="#b0-3" x="706" y="401"/><use href="#b0-3" x="734" y="401"/><use href="#b0-3" x="580" y="408"/><use href="#b0-3" x="608" y="408"/><use href="#b0-3" x="636" y="408"/><use href="#b0-3" x="664" y="408"/><use href="#b0-3" x="692" y="408"/><use href="#b0-3" x="720" y="408"/><use href="#b0-3" x="748" y="408"/><use href="#b0-3" x="594" y="415"/><use href="#b0-3" x="622" y="415"/><use href="#b0-3" x="650" y="415"/><use href="#b0-3" x="678" y="415"/><use href="#b0-3" x="706" y="415"/><use href="#b1-28" x="734" y="390"/><use href="#b0-3" x="762" y="415"/><use href="#b0-3" x="608" y="422"/><use href="#b0-3" x="636" y="422"/><use href="#b0-3" x="664" y="422"/><use href="#b0-3" x="692" y="422"/><use href="#b0-3" x="720" y="422"/><use href="#b0-3" x="748" y="422"/><use href="#b0-3" x="776" y="422"/><use href="#b0-3" x="622" y="429"/><use href="#b0-3" x="650" y="429"/><use href="#b0-3" x="678" y="429"/><use href="#b0-3" x="706" y="429"/><use href="#b0-3" x="734" y="429"/><use href="#b0-3" x="762" y="429"/><use href="#b0-3" x="790" y="429"/><use href="#b0-3" x="636" y="436"/><use href="#b0-3" x="664" y="436"/><use href="#b0-3" x="692" y="436"/><use href="#b0-3" x="720" y="436"/><use href="#b0-3" x="748" y="436"/><use href="#b0-3" x="776" y="436"/><use href="#b2-41" x="804" y="398"/><use href="#b0-3" x="650" y="443"/><use href="#b0-3" x="678" y="443"/><use href="#b0-3" x="706" y="443"/><use href="#b0-3" x="734" y="443"/><use href="#b0-3" x="762" y="443"/><use href="#b0-3" x="790" y="443"/><use href="#b2-41" x="818" y="405"/><use href="#b0-3" x="664" y="450"/><use href="#b0-3" x="692" y="450"/><use href="#b0-3" x="720" y="450"/><use href="#b0-3" x="748" y="450"/><use href="#b0-3" x="776" y="450"/><use href="#b0-3" x="832" y="450"/><use href="#b0-3" x="678" y="457"/><use href="#b0-3" x="706" y="457"/><use href="#b0-3" x="734" y="457"/><use href="#b1-17" x="762" y="443"/><use href="#b1-17" x="790" y="443"/><use href="#b1-17" x="818" y="443"/><use href="#b1-23" x="846" y="437"/><use href="#b0-3" x="692" y="464"/><use href="#b1-32" x="720" y="435"/><use href="#b2-34" x="748" y="433"/><use href="#b1-23" x="776" y="444"/><use href="#b2-37" x="804" y="430"/><use href="#b1-17" x="832" y="450"/><use href="#b1-32" x="734" y="442"/><use href="#b0-3" x="762" y="471"/><use href="#b1-32" x="790" y="442"/><use href="#b2-39" x="748" y="442"/><use href="#b1-32" x="776" y="449"/><use href="#b1-28" x="804" y="453"/><use href="#b1-23" x="734" y="465"/><use href="#b1-28" x="762" y="460"/><use href="#b1-17" x="748" y="478"/>
<g><use href="#b4-49" x="328" y="180"/><use href="#b4-48" x="258" y="188"/><use href="#b4-81" x="804" y="372"/><use href="#b4-52" x="706" y="422"/><use href="#b4-48" x="818" y="426"/><use href="#b4-52" x="720" y="429"/><animate attributeName="opacity" values="0.82;1;0.82" dur="4s" repeatCount="indefinite"/></g>
<text x="804" y="360" font-size="12" font-weight="700" fill="#1a7f37" text-anchor="middle">▲ 109 in one day</text>
<text x="25.60000000000001" y="170.2" transform="rotate(26.57 25.60000000000001 170.2)" font-size="11" fill="#57606a" text-anchor="middle">Aug</text><text x="95.60000000000001" y="205.2" transform="rotate(26.57 95.60000000000001 205.2)" font-size="11" fill="#57606a" text-anchor="middle">Sep</text><text x="151.60000000000002" y="233.20000000000002" transform="rotate(26.57 151.60000000000002 233.20000000000002)" font-size="11" fill="#57606a" text-anchor="middle">Oct</text><text x="207.60000000000002" y="261.20000000000005" transform="rotate(26.57 207.60000000000002 261.20000000000005)" font-size="11" fill="#57606a" text-anchor="middle">Nov</text><text x="277.6" y="296.20000000000005" transform="rotate(26.57 277.6 296.20000000000005)" font-size="11" fill="#57606a" text-anchor="middle">Dec</text><text x="333.6" y="324.20000000000005" transform="rotate(26.57 333.6 324.20000000000005)" font-size="11" fill="#57606a" text-anchor="middle">Jan</text><text x="403.59999999999997" y="359.20000000000005" transform="rotate(26.57 403.59999999999997 359.20000000000005)" font-size="11" fill="#57606a" text-anchor="middle">Feb</text><text x="459.59999999999997" y="387.2" transform="rotate(26.57 459.59999999999997 387.2)" font-size="11" fill="#57606a" text-anchor="middle">Mar</text><text x="515.5999999999999" y="415.2" transform="rotate(26.57 515.5999999999999 415.2)" font-size="11" fill="#57606a" text-anchor="middle">Apr</text><text x="571.5999999999999" y="443.2" transform="rotate(26.57 571.5999999999999 443.2)" font-size="11" fill="#57606a" text-anchor="middle">May</text><text x="641.6" y="478.2" transform="rotate(26.57 641.6 478.2)" font-size="11" fill="#57606a" text-anchor="middle">Jun</text><text x="697.6" y="506.2" transform="rotate(26.57 697.6 506.2)" font-size="11" fill="#57606a" text-anchor="middle">Jul</text>
</svg>