<svg xmlns="http://www.w3.org/2000/svg" viewBox="0 0 886 571" width="886" height="571" font-family="Segoe UI, Ubuntu, sans-serif">
<text x="22" y="34" font-size="20" font-weight="700" fill="#1f2328">714 contributions</text>
<text x="22" y="54" font-size="12" fill="#57606a">2025-08-03 → 2026-08-02 · rendered as an isometric skyline</text>
<defs><g id="b0-3"><path d="M-14 7v3l14 7v-3z" fill="#9b9c9e"/><path d="M14 7v3l-14 7v-3z" fill="#c1c2c5"/><path d="M0 0l14 7-14 7-14-7z" fill="#ebedf0" stroke="#d0d7de" stroke-width="0.5"/></g><g id="b1-17"><path d="M-14 7v17l14 7v-17z" fill="#669a6f"/><path d="M14 7v17l-14 7v-17z" fill="#7fbf8a"/><path d="M0 0l14 7-14 7-14-7z" fill="#9be9a8"/></g><g id="b1-23"><path d="M-14 7v23l14 7v-23z" fill="#669a6f"/><path d="M14 7v23l-14 7v-23z" fill="#7fbf8a"/><path d="M0 0l14 7-14 7-14-7z" fill="#9be9a8"/></g><g id="b1-32"><path d="M-14 7v32l14 7v-32z" fill="#669a6f"/><path d="M14 7v32l-14 7v-32z" fill="#7fbf8a"/><path d="M0 0l14 7-14 7-14-7z" fill="#9be9a8"/></g><g id="b1-28"><path d="M-14 7v28l14 7v-28z" fill="#669a6f"/><path d="M14 7v28l-14 7v-28z" fill="#7fbf8a"/><path d="M0 0l14 7-14 7-14-7z" fill="#9be9a8"/></g><g id="b2-34"><path d="M-14 7v34l14 7v-34z" fill="#2a8141"/><path d="M14 7v34l-14 7v-34z" fill="#34a151"/><path d="M0 0l14 7-14 7-14-7z" fill="#40c463"/></g><g id="b2-37"><path d="M-14 7v37l14 7v-37z" fill="#2a8141"/><path d="M14 7v37l-14 7v-37z" fill="#34a151"/><path d="M0 0l14 7-14 7-14-7z" fill="#40c463"/></g><g id="b2-41"><path d="M-14 7v41l14 7v-41z" fill="#2a8141"/><path d="M14 7v41l-14 7v-41z" fill="#34a151"/><path d="M0 0l14 7-14 7-14-7z" fill="#40c463"/></g><g id="b3-47"><path d="M-14 7v47l14 7v-47z" fill="#206a33"/><path d="M14 7v47l-14 7v-47z" fill="#278440"/><path d="M0 0l14 7-14 7-14-7z" fill="#30a14e"/></g><g id="b4-49"><path d="M-14 7v49l14 7v-49z" fill="#164926"/><path d="M14 7v49l-14 7v-49z" fill="#1b5a2f"/><path d="M0 0l14 7-14 7-14-7z" fill="#216e39"/></g><g id="b4-48"><path d="M-14 7v48l14 7v-48z" fill="#164926"/><path d="M14 7v48l-14 7v-48z" fill="#1b5a2f"/><path d="M0 0l14 7-14 7-14-7z" fill="#216e39"/></g><g id="b2-39"><path d="M-14 7v39l14 7v-39z" fill="#2a8141"/><path d="M14 7v39l-14 7v-39z" fill="#34a151"/><path d="M0 0l14 7-14 7-14-7z" fill="#40c463"/></g><g id="b3-44"><path d="M-14 7v44l14 7v-44z" fill="#206a33"/><path d="M14 7v44l-14 7v-44z" fill="#278440"/><path d="M0 0l14 7-14 7-14-7z" fill="#30a14e"/></g><g id="b4-81"><path d="M-14 7v81l14 7v-81z" fill="#164926"/><path d="M14 7v81l-14 7v-81z" fill="#1b5a2f"/><path d="M0 0l14 7-14 7-14-7z" fill="#216e39"/></g><g id="b4-55"><path d="M-14 7v55l14 7v-55z" fill="#164926"/><path d="M14 7v55l-14 7v-55z" fill="#1b5a2f"/><path d="M0 0l14 7-14 7-14-7z" fill="#216e39"/></g><g id="b4-52"><path d="M-14 7v52l14 7v-52z" fill="#164926"/><path d="M14 7v52l-14 7v-52z" fill="#1b5a2f"/><path d="M0 0l14 7-14 7-14-7z" fill="#216e39"/></g><g id="b4-72"><path d="M-14 7v72l14 7v-72z" fill="#164926"/><path d="M14 7v72l-14 7v-72z" fill="#1b5a2f"/><path d="M0 0l14 7-14 7-14-7z" fill="#216e39"/></g><g id="b4-63"><path d="M-14 7v63l14 7v-63z" fill="#164926"/><path d="M14 7v63l-14 7v-63z" fill="#1b5a2f"/><path d="M0 0l14 7-14 7-14-7z" fill="#216e39"/></g><g id="b4-54"><path d="M-14 7v54l14 7v-54z" fill="#164926"/><path d="M14 7v54l-14 7v-54z" fill="#1b5a2f"/><path d="M0 0l14 7-14 7-14-7z" fill="#216e39"/></g><g id="b4-56"><path d="M-14 7v56l14 7v-56z" fill="#164926"/><path d="M14 7v56l-14 7v-56z" fill="#1b5a2f"/><path d="M0 0l14 7-14 7-14-7z" fill="#216e39"/></g></defs>
<text x="736" y="40" font-size="11" fill="#57606a" text-anchor="end">less</text><path d="M739 39v4l9 4.5v-4z" fill="#9b9c9e"/><path d="M757 39v4l-9 4.5v-4z" fill="#c1c2c5"/><path d="M748 34.5l9 4.5-9 4.5-9-4.5z" fill="#ebedf0" stroke="#d0d7de" stroke-width="0.5"/><path d="M761 39v4l9 4.5v-4z" fill="#669a6f"/><path d="M779 39v4l-9 4.5v-4z" fill="#7fbf8a"/><path d="M770 34.5l9 4.5-9 4.5-9-4.5z" fill="#9be9a8"/><path d="M783 39v4l9 4.5v-4z" fill="#2a8141"/><path d="M801 39v4l-9 4.5v-4z" fill="#34a151"/><path d="M792 34.5l9 4.5-9 4.5-9-4.5z" fill="#40c463"/><path d="M805 39v4l9 4.5v-4z" fill="#206a33"/><path d="M823 39v4l-9 4.5v-4z" fill="#278440"/><path d="M814 34.5l9 4.5-9 4.5-9-4.5z" fill="#30a14e"/><path d="M827 39v4l9 4.5v-4z" fill="#164926"/><path d="M845 39v4l-9 4.5v-4z" fill="#1b5a2f"/><path d="M836 34.5l9 4.5-9 4.5-9-4.5z" fill="#216e39"/><text x="858" y="46" font-size="11" fill="#57606a">more</text>
<use href="#b0-3" x="118" y="93"/><use href="#b0-3" x="104" y="100"/><use href="#b0-3" x="132" y="100"/><use href="#b0-3" x="90" y="107"/><use href="#b0-3" x="118" y="107"/><use href="#b0-3" x="146" y="107"/><use href="#b0-3" x="76" y="114"/><use href="#b0-3" x="104" y="114"/><use href="#b0-3" x="132" y="114"/><use href="#b0-3" x="160" y="114"/><use href="#b0-3" x="62" y="121"/><use href="#b1-17" x="90" y="107"/><use href="#b0-3" x="118" y="121"/><use href="#b1-23" x="146" y="101"/><use href="#b1-23" x="174" y="101"/><use href="#b0-3" x="48" y="128"/><use href="#b0-3" x="76" y="128"/><use href="#b0-3" x="104" y="128"/><use href="#b0-3" x="132" y="128"/><use href="#b0-3" x="160" y="128"/><use href="#b0-3" x="188" y="128"/><use href="#b0-3" x="34" y="135"/><use href="#b0-3" x="62" y="135"/><use href="#b0-3" x="90" y="135"/><use href="#b0-3" x="118" y="135"/><use href="#b1-32" x="146" y="106"/><use href="#b0-3" x="174" y="135"/><use href="#b0-3" x="202" y="135"/><use href="#b0-3" x="48" y="142"/><use href="#b0-3" x="76" y="142"/><use href="#b1-23" x="104" y="122"/><use href="#b0-3" x="132" y="142"/><use href="#b1-28" x="160" y="117"/><use href="#b0-3" x="188" y="142"/><use href="#b1-23" x="216" y="122"/><use href="#b0-3" x="62" y="149"/><use href="#b0-3" x="90" y="149"/><use href="#b1-17" x="118" y="135"/><use href="#b1-28" x="146" y="124"/><use href="#b0-3" x="174" y="149"/><use href="#b2-34" x="202" y="118"/><use href="#b0-3" x="230" y="149"/><use href="#b2-37" x="76" y="122"/><use href="#b0-3" x="104" y="156"/><use href="#b0-3" x="132" y="156"/><use href="#b0-3" x="160" y="156"/><use href="#b2-41" x="188" y="118"/><use href="#b0-3" x="216" y="156"/><use href="#b0-3" x="244" y="156"/><use href="#b0-3" x="90" y="163"/><use href="#b0-3" x="118" y="163"/><use href="#b0-3" x="146" y="163"/><use href="#b0-3" x="174" y="163"/><use href="#b0-3" x="202" y="163"/><use href="#b0-3" x="230" y="163"/><use href="#b0-3" x="258" y="163"/><use href="#b0-3" x="104" y="170"/><use href="#b0-3" x="132" y="170"/><use href="#b0-3" x="160" y="170"/><use href="#b0-3" x="188" y="170"/><use href="#b0-3" x="216" y="170"/><use href="#b0-3" x="244" y="170"/><use href="#b1-32" x="272" y="141"/><use href="#b2-41" x="118" y="139"/><use href="#b0-3" x="146" y="177"/><use href="#b1-28" x="174" y="152"/><use href="#b0-3" x="202" y="177"/><use href="#b0-3" x="230" y="177"/><use href="#b2-34" x="258" y="146"/><use href="#b0-3" x="286" y="177"/><use href="#b0-3" x="132" y="184"/><use href="#b0-3" x="160" y="184"/><use href="#b0-3" x="188" y="184"/><use href="#b0-3" x="216" y="184"/><use href="#b0-3" x="244" y="184"/><use href="#b0-3" x="272" y="184"/><use href="#b0-3" x="300" y="184"/><use href="#b0-3" x="146" y="191"/><use href="#b0-3" x="174" y="191"/><use href="#b0-3" x="202" y="191"/><use href="#b2-34" x="230" y="160"/><use href="#b0-3" x="258" y="191"/><use href="#b1-17" x="286" y="177"/><use href="#b0-3" x="314" y="191"/><use href="#b0-3" x="160" y="198"/><use href="#b0-3" x="188" y="198"/><use href="#b0-3" x="216" y="198"/><use href="#b0-3" x="244" y="198"/><use href="#b1-32" x="272" y="169"/><use href="#b0-3" x="300" y="198"/><use href="#b0-3" x="328" y="198"/><use href="#b1-17" x="174" y="191"/><use href="#b0-3" x="202" y="205"/><use href="#b0-3" x="230" y="205"/><use href="#b1-17" x="258" y="191"/><use href="#b0-3" x="286" y="205"/><use href="#b3-47" x="314" y="161"/><use href="#b1-17" x="342" y="191"/><use href="#b1-32" x="188" y="183"/><use href="#b0-3" x="216" y="212"/><use href="#b3-47" x="244" y="168"/><use href="#b1-17" x="272" y="198"/><use href="#b2-34" x="328" y="181"/><use href="#b0-3" x="356" y="212"/><use href="#b1-23" x="202" y="199"/><use href="#b0-3" x="258" y="219"/><use href="#b0-3" x="286" y="219"/><use href="#b1-23" x="314" y="199"/><use href="#b1-28" x="342" y="194"/><use href="#b0-3" x="370" y="219"/><use href="#b2-39" x="216" y="190"/><use href="#b0-3" x="244" y="226"/><use href="#b0-3" x="272" y="226"/><use href="#b0-3" x="300" y="226"/><use href="#b1-23" x="328" y="206"/><use href="#b0-3" x="356" y="226"/><use href="#b0-3" x="384" y="226"/><use href="#b0-3" x="230" y="233"/><use href="#b0-3" x="258" y="233"/><use href="#b0-3" x="286" y="233"/><use href="#b1-17" x="314" y="219"/><use href="#b0-3" x="342" y="233"/><use href="#b1-17" x="370" y="219"/><use href="#b0-3" x="398" y="233"/><use href="#b1-23" x="244" y="220"/><use href="#b0-3" x="272" y="240"/><use href="#b0-3" x="300" y="240"/><use href="#b1-17" x="328" y="226"/><use href="#b1-17" x="356" y="226"/><use href="#b0-3" x="384" y="240"/><use href="#b0-3" x="412" y="240"/><use href="#b0-3" x="258" y="247"/><use href="#b0-3" x="286" y="247"/><use href="#b1-17" x="314" y="233"/><use href="#b0-3" x="342" y="247"/><use href="#b1-17" x="370" y="233"/><use href="#b0-3" x="398" y="247"/><use href="#b0-3" x="426" y="247"/><use href="#b1-17" x="272" y="240"/><use href="#b0-3" x="300" y="254"/><use href="#b0-3" x="328" y="254"/><use href="#b0-3" x="356" y="254"/><use href="#b0-3" x="384" y="254"/><use href="#b1-28" x="412" y="229"/><use href="#b0-3" x="440" y="254"/><use href="#b1-17" x="286" y="247"/><use href="#b0-3" x="314" y="261"/><use href="#b0-3" x="342" y="261"/><use href="#b0-3" x="370" y="261"/><use href="#b0-3" x="398" y="261"/><use href="#b0-3" x="426" y="261"/><use href="#b0-3" x="454" y="261"/><use href="#b0-3" x="300" y="268"/><use href="#b0-3" x="328" y="268"/><use href="#b0-3" x="356" y="268"/><use href="#b0-3" x="384" y="268"/><use href="#b0-3" x="412" y="268"/><use href="#b0-3" x="440" y="268"/><use href="#b0-3" x="468" y="268"/><use href="#b1-17" x="314" y="261"/><use href="#b0-3" x="342" y="275"/><use href="#b0-3" x="370" y="275"/><use href="#b0-3" x="398" y="275"/><use href="#b0-3" x="426" y="275"/><use href="#b0-3" x="454" y="275"/><use href="#b1-23" x="482" y="255"/><use href="#b0-3" x="328" y="282"/><use href="#b0-3" x="356" y="282"/><use href="#b0-3" x="384" y="282"/><use href="#b0-3" x="412" y="282"/><use href="#b0-3" x="440" y="282"/><use href="#b0-3" x="468" y="282"/><use href="#b0-3" x="496" y="282"/><use href="#b0-3" x="342" y="289"/><use href="#b0-3" x="370" y="289"/><use href="#b0-3" x="398" y="289"/><use href="#b0-3" x="426" y="289"/><use href="#b0-3" x="454" y="289"/><use href="#b0-3" x="482" y="289"/><use href="#b1-17" x="510" y="275"/><use href="#b0-3" x="356" y="296"/><use href="#b0-3" x="384" y="296"/><use href="#b1-17" x="412" y="282"/><use href="#b0-3" x="440" y="296"/><use href="#b0-3" x="468" y="296"/><use href="#b0-3" x="496" y="296"/><use href="#b1-17" x="524" y="282"/><use href="#b0-3" x="370" y="303"/><use href="#b1-17" x="398" y="289"/><use href="#b0-3" x="426" y="303"/><use href="#b0-3" x="454" y="303"/><use href="#b0-3" x="482" y="303"/><use href="#b3-44" x="510" y="262"/><use href="#b0-3" x="538" y="303"/><use href="#b0-3" x="384" y="310"/><use href="#b0-3" x="412" y="310"/><use href="#b1-23" x="440" y="290"/><use href="#b0-3" x="468" y="310"/><use href="#b0-3" x="496" y="310"/><use href="#b0-3" x="524" y="310"/><use href="#b0-3" x="552" y="310"/><use href="#b0-3" x="398" y="317"/><use href="#b1-23" x="426" y="297"/><use href="#b0-3" x="454" y="317"/><use href="#b0-3" x="482" y="317"/><use href="#b0-3" x="510" y="317"/><use href="#b0-3" x="538" y="317"/><use href="#b0-3" x="566" y="317"/><use href="#b0-3" x="412" y="324"/><use href="#b1-17" x="440" y="310"/><use href="#b1-17" x="468" y="310"/><use href="#b0-3" x="496" y="324"/><use href="#b0-3" x="524" y="324"/><use href="#b0-3" x="552" y="324"/><use href="#b0-3" x="580" y="324"/><use href="#b1-23" x="426" y="311"/><use href="#b0-3" x="454" y="331"/><use href="#b0-3" x="482" y="331"/><use href="#b0-3" x="510" y="331"/><use href="#b0-3" x="538" y="331"/><use href="#b0-3" x="566" y="331"/><use href="#b0-3" x="594" y="331"/><use href="#b0-3" x="440" y="338"/><use href="#b0-3" x="468" y="338"/><use href="#b0-3" x="496" y="338"/><use href="#b0-3" x="524" y="338"/><use href="#b0-3" x="552" y="338"/><use href="#b0-3" x="580" y="338"/><use href="#b0-3" x="608" y="338"/><use href="#b0-3" x="454" y="345"/><use href="#b0-3" x="482" y="345"/><use href="#b0-3" x="510" y="345"/><use href="#b0-3" x="538" y="345"/><use href="#b0-3" x="566" y="345"/><use href="#b0-3" x="594" y="345"/><use href="#b1-17" x="622" y="331"/><use href="#b0-3" x="468" y="352"/><use href="#b0-3" x="496" y="352"/><use href="#b0-3" x="524" y="352"/><use href="#b0-3" x="552" y="352"/><use href="#b0-3" x="580" y="352"/><use href="#b0-3" x="608" y="352"/><use href="#b0-3" x="636" y="352"/><use href="#b0-3" x="482" y="359"/><use href="#b0-3" x="510" y="359"/><use href="#b0-3" x="538" y="359"/><use href="#b0-3" x="566" y="359"/><use href="#b0-3" x="594" y="359"/><use href="#b0-3" x="622" y="359"/><use href="#b0-3" x="650" y="359"/><use href="#b0-3" x="496" y="366"/><use href="#b0-3" x="524" y="366"/><use href="#b0-3" x="552" y="366"/><use href="#b0-3" x="580" y="366"/><use href="#b0-3" x="608" y="366"/><use href="#b0-3" x="636" y="366"/><use href="#b0-3" x="664" y="366"/><use href="#b0-3" x="510" y="373"/><use href="#b0-3" x="538" y="373"/><use href="#b0-3" x="566" y="373"/><use href="#b0-3" x="594" y="373"/><use href="#b0-3" x="622" y="373"/><use href="#b0-3" x="650" y="373"/><use href="#b0-3" x="678" y="373"/><use href="#b0-3" x="524" y="380"/><use href="#b2-39" x="552" y="344"/><use href="#b0-3" x="580" y="380"/><use href="#b0-3" x="608" y="380"/><use href="#b0-3" x="636" y="380"/><use href="#b0-3" x="664" y="380"/><use href="#b0-3" x="692" y="380"/><use href="#b0-3" x="538" y="387"/><use href="#b0-3" x="566" y="387"/><use href="#b0-3" x="594" y="387"/><use href="#b0-3" x="622" y="387"/><use href="#b0-3" x="650" y="387"/><use href="#b0-3" x="678" y="387"/><use href="#b0-3" x="706" y="387"/><use href="#b0-3" x="552" y="394"/><use href="#b0-3" x="580" y="394"/><use href="#b0-3" x="608" y="394"/><use href="#b0-3" x="636" y="394"/><use href="#b0-3" x="664" y="394"/><use href="#b0-3" x="692" y="394"/><use href="#b0-3" x="720" y="394"/><use href="#b0-3" x="566" y="401"/><use href="#b0-3" x="594" y="401"/><use href="#b0-3" x="622" y="401"/><use href="#b0-3" x="650" y="401"/><use href="#b0-3" x="678" y="401"/><use href="#b1-28" x="706" y="376"/><use href="#b0-3" x="734" y="401"/><use href="#b0-3" x="580" y="408"/><use href="#b0-3" x="608" y="408"/><use href="#b0-3" x="636" y="408"/><use href="#b0-3" x="664" y="408"/><use href="#b0-3" x="692" y="408"/><use href="#b0-3" x="720" y="408"/><use href="#b0-3" x="748" y="408"/><use href="#b0-3" x="594" y="415"/><use href="#b0-3" x="622" y="415"/><use href="#b0-3" x="650" y="415"/><use href="#b0-3" x="678" y="415"/><use href="#b0-3" x="706" y="415"/><use href="#b0-3" x="734" y="415"/><use href="#b0-3" x="762" y="415"/><use href="#b0-3" x="608" y="422"/><use href="#b0-3" x="636" y="422"/><use href="#b0-3" x="664" y="422"/><use href="#b0-3" x="692" y="422"/><use href="#b1-17" x="720" y="408"/><use href="#b0-3" x="748" y="422"/><use href="#b2-41" x="776" y="384"/><use href="#b0-3" x="622" y="429"/><use href="#b0-3" x="650" y="429"/><use href="#b0-3" x="678" y="429"/><use href="#b0-3" x="706" y="429"/><use href="#b0-3" x="734" y="429"/><use href="#b0-3" x="762" y="429"/><use href="#b2-41" x="790" y="391"/><use href="#b0-3" x="636" y="436"/><use href="#b0-3" x="664" y="436"/><use href="#b0-3" x="692" y="436"/><use href="#b2-37" x="720" y="402"/><use href="#b0-3" x="748" y="436"/><use href="#b0-3" x="804" y="436"/><use href="#b0-3" x="650" y="443"/><use href="#b0-3" x="678" y="443"/><use href="#b1-17" x="734" y="429"/><use href="#b1-17" x="762" y="429"/><use href="#b1-17" x="790" y="429"/><use href="#b1-23" x="818" y="423"/><use href="#b0-3" x="664" y="450"/><use href="#b1-32" x="692" y="421"/><use href="#b2-34" x="720" y="419"/><use href="#b1-23" x="748" y="430"/><use href="#b2-37" x="776" y="416"/><use href="#b1-17" x="804" y="436"/><use href="#b3-44" x="832" y="409"/><use href="#b1-32" x="706" y="428"/><use href="#b0-3" x="734" y="457"/><use href="#b1-32" x="762" y="428"/><use href="#b1-17" x="818" y="443"/><use href="#b2-39" x="720" y="428"/><use href="#b1-32" x="748" y="435"/><use href="#b0-3" x="804" y="464"/><use href="#b1-23" x="706" y="451"/><use href="#b1-28" x="734" y="446"/><use href="#b0-3" x="790" y="471"/><use href="#b1-17" x="720" y="464"/><use href="#b1-17" x="776" y="464"/><use href="#b0-3" x="734" y="485"/><use href="#b1-28" x="762" y="460"/>
<g><use href="#b4-49" x="300" y="166"/><use href="#b4-48" x="230" y="174"/><use href="#b4-81" x="776" y="358"/><use href="#b4-55" x="706" y="391"/><use href="#b4-52" x="678" y="408"/><use href="#b4-48" x="790" y="412"/><use href="#b4-72" x="846" y="388"/><use href="#b4-52" x="692" y="415"/><use href="#b4-81" x="776" y="386"/><use href="#b4-63" x="762" y="411"/><use href="#b4-54" x="748" y="427"/><use href="#b4-56" x="748" y="439"/><animate attributeName="opacity" values="0.82;1;0.82" dur="4s" repeatCount="indefinite"/></g>
<text x="776" y="374" font-size="12" font-weight="700" fill="#1a7f37" text-anchor="middle">▲ 113 in one day</text>
<text x="67.60000000000001" y="191.2" transform="rotate(26.57 67.60000000000001 191.2)" font-size="11" fill="#57606a" text-anchor="middle">Sep</text><text x="123.60000000000001" y="219.2" transform="rotate(26.57 123.60000000000001 219.2)" font-size="11" fill="#57606a" text-anchor="middle">Oct</text><text x="179.60000000000002" y="247.20000000000002" transform="rotate(26.57 179.60000000000002 247.20000000000002)" font-size="11" fill="#57606a" text-anchor="middle">Nov</text><text x="249.6" y="282.20000000000005" transform="rotate(26.57 249.6 282.20000000000005)" font-size="11" fill="#57606a" text-anchor="middle">Dec</text><text x="305.6" y="310.20000000000005" transform="rotate(26.57 305.6 310.20000000000005)" font-size="11" fill="#57606a" text-anchor="middle">Jan</text><text x="375.59999999999997" y="345.20000000000005" transform="rotate(26.57 375.59999999999997 345.20000000000005)" font-size="11" fill="#57606a" text-anchor="middle">Feb</text><text x="431.59999999999997" y="373.2" transform="rotate(26.57 431.59999999999997 373.2)" font-size="11" fill="#57606a" text-anchor="middle">Mar</text><text x="487.59999999999997" y="401.2" transform="rotate(26.57 487.59999999999997 401.2)" font-size="11" fill="#57606a" text-anchor="middle">Apr</text><text x="543.5999999999999" y="429.2" transform="rotate(26.57 543.5999999999999 429.2)" font-size="11" fill="#57606a" text-anchor="middle">May</text><text x="613.5999999999999" y="464.2" transform="rotate(26.57 613.5999999999999 464.2)" font-size="11" fill="#57606a" text-anchor="middle">Jun</text><text x="669.6" y="492.2" transform="rotate(26.57 669.6 492.2)" font-size="11" fill="#57606a" text-anchor="middle">Jul</text><text x="725.6" y="520.2" transform="rotate(26.57 725.6 520.2)" font-size="11" fill="#57606a" text-anchor="middle">Aug</text>
</svg>