<svg width="850" height="240" viewBox="0 0 850 240" xmlns="http://www.w3.org/2000/svg" fill="none" role="img" aria-label="Mohammad Pooshesh - AI Engineer, GeoAI">
<defs>
<linearGradient id="bg" x1="0" y1="0" x2="850" y2="240" gradientUnits="userSpaceOnUse">
<stop offset="0" stop-color="#0A1220"/>
<stop offset="1" stop-color="#0E1E30"/>
</linearGradient>
<clipPath id="frame"><rect width="850" height="240" rx="12"/></clipPath>
</defs>
<style>
.contour { stroke-dasharray: 5 7; animation: flow 40s linear infinite; }
.contour2 { stroke-dasharray: 4 6; animation: flow 55s linear infinite reverse; }
@keyframes flow { to { stroke-dashoffset: -720; } }
.pulse { animation: pulse 2.6s ease-in-out infinite; transform-origin: center; }
@keyframes pulse { 0%,100% { opacity: .9; } 50% { opacity: .35; } }
text { font-family: 'Segoe UI', Helvetica, Arial, sans-serif; }
.mono { font-family: 'Cascadia Code', 'Fira Code', Consolas, monospace; }
</style>
<rect width="850" height="240" rx="12" fill="url(#bg)"/>
<g clip-path="url(#frame)">
<g stroke="#FFFFFF" stroke-opacity="0.045" stroke-width="1"><line x1="0" y1="0" x2="0" y2="240"/><line x1="60" y1="0" x2="60" y2="240"/><line x1="120" y1="0" x2="120" y2="240"/><line x1="180" y1="0" x2="180" y2="240"/><line x1="240" y1="0" x2="240" y2="240"/><line x1="300" y1="0" x2="300" y2="240"/><line x1="360" y1="0" x2="360" y2="240"/><line x1="420" y1="0" x2="420" y2="240"/><line x1="480" y1="0" x2="480" y2="240"/><line x1="540" y1="0" x2="540" y2="240"/><line x1="600" y1="0" x2="600" y2="240"/><line x1="660" y1="0" x2="660" y2="240"/><line x1="720" y1="0" x2="720" y2="240"/><line x1="780" y1="0" x2="780" y2="240"/><line x1="840" y1="0" x2="840" y2="240"/><line x1="0" y1="0" x2="850" y2="0"/><line x1="0" y1="40" x2="850" y2="40"/><line x1="0" y1="80" x2="850" y2="80"/><line x1="0" y1="120" x2="850" y2="120"/><line x1="0" y1="160" x2="850" y2="160"/><line x1="0" y1="200" x2="850" y2="200"/><line x1="0" y1="240" x2="850" y2="240"/></g>
<g fill="#5E9FE8" fill-opacity="0.35" font-size="8" class="mono"><text x="63" y="11">54.00°E</text><text x="183" y="11">54.12°E</text><text x="303" y="11">54.24°E</text><text x="423" y="11">54.36°E</text><text x="543" y="11">54.48°E</text><text x="663" y="11">54.60°E</text><text x="783" y="11">54.72°E</text></g>
<path class="contour" d="M 777.7 128.0 C 777.2 135.0 774.4 142.3 770.6 148.6 C 766.9 155.0 761.0 161.0 755.1 166.2 C 749.1 171.3 741.9 175.7 734.9 179.6 C 728.0 183.6 720.7 186.8 713.5 189.8 C 706.3 192.9 699.2 195.5 691.8 198.0 C 684.5 200.5 677.2 202.9 669.3 204.8 C 661.5 206.7 653.4 208.4 645.0 209.3 C 636.6 210.1 627.7 210.5 619.1 209.9 C 610.4 209.2 601.4 207.7 593.3 205.2 C 585.2 202.8 577.3 199.3 570.4 195.4 C 563.5 191.4 557.3 186.5 552.0 181.4 C 546.8 176.3 542.4 170.6 538.7 164.9 C 535.0 159.1 532.1 153.1 529.8 146.9 C 527.6 140.8 525.8 134.4 525.1 128.0 C 524.3 121.6 524.1 114.9 525.2 108.3 C 526.4 101.8 528.4 95.0 531.9 88.8 C 535.4 82.6 540.3 76.4 546.2 71.3 C 552.2 66.2 559.8 61.5 567.6 58.1 C 575.5 54.7 584.6 52.3 593.4 50.8 C 602.1 49.3 611.4 49.0 620.0 49.1 C 628.6 49.2 637.0 50.3 645.0 51.3 C 653.0 52.3 660.5 53.8 668.1 55.2 C 675.7 56.6 683.0 58.0 690.6 59.8 C 698.3 61.5 706.3 63.1 714.2 65.5 C 722.1 68.0 730.6 70.7 738.1 74.5 C 745.7 78.3 753.5 82.9 759.5 88.3 C 765.4 93.7 770.8 100.2 773.8 106.8 C 776.8 113.4 778.2 121.0 777.7 128.0 Z" stroke="#20456B" stroke-width="1.2"/>
<path class="contour2" d="M 756.5 128.0 C 759.1 133.7 758.7 140.7 756.3 146.3 C 753.8 151.9 747.3 157.2 741.7 161.5 C 736.1 165.9 728.8 169.2 722.6 172.6 C 716.5 176.0 710.7 179.1 704.6 181.8 C 698.4 184.5 692.4 187.5 685.8 189.0 C 679.2 190.5 671.7 191.1 664.9 190.7 C 658.1 190.4 651.2 188.1 645.0 186.7 C 638.8 185.2 633.8 182.9 627.9 181.9 C 622.0 180.9 616.5 181.1 609.6 180.9 C 602.7 180.7 594.2 181.8 586.6 180.8 C 578.9 179.7 569.7 178.0 563.8 174.6 C 557.9 171.2 553.3 165.7 551.2 160.5 C 549.2 155.3 550.5 148.8 551.3 143.4 C 552.0 138.0 554.7 133.0 555.5 128.0 C 556.4 123.0 556.1 118.6 556.2 113.4 C 556.3 108.3 554.9 102.5 556.1 97.2 C 557.4 91.8 559.5 85.8 563.7 81.3 C 567.9 76.9 574.8 73.2 581.4 70.6 C 588.0 68.0 596.2 67.0 603.4 65.8 C 610.6 64.5 617.5 63.9 624.4 63.1 C 631.4 62.2 638.1 60.8 645.0 60.6 C 651.9 60.4 659.5 60.3 665.9 62.0 C 672.3 63.7 678.7 67.0 683.4 70.6 C 688.1 74.2 690.9 79.6 694.2 83.5 C 697.6 87.5 699.2 91.4 703.3 94.5 C 707.5 97.6 712.7 99.4 718.9 102.4 C 725.1 105.3 734.3 108.0 740.5 112.3 C 746.8 116.6 753.9 122.3 756.5 128.0 Z" stroke="#28557F" stroke-width="1.2"/>
<path class="contour" d="M 719.6 128.0 C 718.2 131.9 714.5 135.6 711.7 139.0 C 709.0 142.3 705.4 145.0 702.9 148.1 C 700.3 151.2 698.5 154.1 696.4 157.5 C 694.3 161.0 693.0 165.1 690.2 168.8 C 687.4 172.5 684.1 176.9 679.7 179.9 C 675.3 182.8 669.4 185.5 663.6 186.6 C 657.8 187.8 650.9 187.6 645.0 186.7 C 639.1 185.9 633.2 183.6 628.0 181.5 C 622.9 179.4 618.4 176.6 614.1 174.1 C 609.8 171.7 605.9 169.2 602.3 166.6 C 598.6 164.0 594.9 161.3 592.2 158.3 C 589.5 155.3 587.1 151.9 586.0 148.4 C 584.9 145.0 585.1 141.2 585.6 137.8 C 586.0 134.4 588.0 131.1 588.9 128.0 C 589.8 124.9 591.1 122.4 591.1 119.1 C 591.1 115.9 590.0 112.8 589.1 108.6 C 588.2 104.4 586.0 99.3 585.9 94.1 C 585.9 88.9 586.1 82.2 588.9 77.4 C 591.7 72.5 596.8 67.2 602.7 64.7 C 608.6 62.2 617.1 61.4 624.2 62.4 C 631.2 63.4 639.2 67.1 645.0 70.7 C 650.8 74.3 655.2 79.8 659.0 83.7 C 662.9 87.5 664.7 91.4 667.9 93.8 C 671.0 96.3 673.7 97.2 677.9 98.3 C 682.1 99.4 687.7 99.2 692.9 100.5 C 698.2 101.7 705.0 103.1 709.4 105.7 C 713.9 108.2 718.0 112.0 719.7 115.7 C 721.4 119.4 720.9 124.1 719.6 128.0 Z" stroke="#316593" stroke-width="1.2"/>
<path class="contour2" d="M 699.8 128.0 C 696.6 130.8 690.3 133.0 686.2 134.8 C 682.1 136.5 677.7 137.1 675.4 138.5 C 673.1 140.0 673.0 141.5 672.3 143.7 C 671.6 145.9 672.3 149.2 671.1 151.6 C 669.9 154.0 667.8 156.8 665.1 158.1 C 662.4 159.3 658.3 159.3 654.9 159.4 C 651.6 159.4 648.4 158.3 645.0 158.4 C 641.6 158.6 638.8 159.4 634.7 160.5 C 630.6 161.6 625.5 164.1 620.3 164.9 C 615.1 165.7 608.2 166.5 603.7 165.2 C 599.3 164.0 595.1 160.9 593.3 157.7 C 591.6 154.4 592.6 149.5 593.4 145.9 C 594.2 142.2 597.1 138.7 598.1 135.7 C 599.1 132.7 599.3 130.6 599.3 128.0 C 599.3 125.4 597.7 122.8 598.1 120.3 C 598.5 117.8 599.3 114.8 601.7 113.0 C 604.1 111.2 608.8 110.0 612.6 109.4 C 616.3 108.8 621.2 109.6 624.2 109.2 C 627.3 108.9 629.0 108.7 631.0 107.0 C 632.9 105.3 633.5 102.0 635.8 99.1 C 638.2 96.2 641.3 91.8 645.0 89.7 C 648.7 87.6 654.1 86.2 658.2 86.4 C 662.3 86.5 666.5 88.9 669.9 90.8 C 673.2 92.8 675.4 95.8 678.3 97.9 C 681.3 100.0 684.3 101.6 687.7 103.5 C 691.2 105.3 696.2 106.8 699.1 109.2 C 702.1 111.7 705.3 114.9 705.4 118.1 C 705.6 121.2 703.1 125.2 699.8 128.0 Z" stroke="#3E7BAE" stroke-width="1.2"/>
<path class="contour" d="M 689.0 128.0 C 685.3 130.0 675.7 131.6 669.5 132.0 C 663.3 132.4 655.0 130.5 651.9 130.4 C 648.8 130.3 649.6 129.6 650.9 131.4 C 652.2 133.2 657.9 137.6 659.8 141.4 C 661.8 145.2 663.4 151.4 662.6 154.3 C 661.7 157.2 657.6 158.8 654.7 158.6 C 651.8 158.3 647.6 154.8 645.0 152.9 C 642.4 150.9 641.1 147.9 639.0 146.9 C 636.9 145.8 635.1 146.6 632.4 146.8 C 629.8 147.0 625.3 148.4 623.1 147.8 C 620.9 147.1 618.5 145.1 619.1 142.9 C 619.6 140.7 623.6 136.7 626.4 134.5 C 629.1 132.2 634.8 130.6 635.6 129.6 C 636.3 128.5 634.8 129.1 631.0 128.0 C 627.3 126.9 618.1 125.3 612.9 122.7 C 607.7 120.1 600.9 115.2 599.7 112.3 C 598.4 109.4 601.5 105.9 605.6 105.3 C 609.6 104.8 618.4 106.9 623.7 108.8 C 629.0 110.6 634.4 115.1 637.4 116.7 C 640.4 118.2 640.5 118.8 641.8 117.9 C 643.1 116.9 643.3 113.1 645.0 111.1 C 646.7 109.2 649.8 106.5 651.9 106.1 C 654.0 105.8 656.4 107.7 657.6 109.2 C 658.8 110.7 658.1 113.8 659.3 115.1 C 660.4 116.4 661.2 116.7 664.4 116.9 C 667.6 117.1 674.0 115.8 678.6 116.3 C 683.2 116.9 690.4 118.3 692.1 120.3 C 693.8 122.2 692.8 126.0 689.0 128.0 Z" stroke="#5E9FE8" stroke-width="1.6"/>
<text class="mono" x="755" y="90" font-size="8" fill="#5E9FE8" fill-opacity="0.55">1200</text>
<text class="mono" x="718" y="116" font-size="8" fill="#5E9FE8" fill-opacity="0.55">1400</text>
<path class="contour2" d="M 180.9 232.0 C 181.3 234.8 182.2 237.5 182.7 240.6 C 183.2 243.7 184.1 247.0 183.9 250.5 C 183.6 253.9 183.1 257.8 181.1 261.2 C 179.1 264.7 176.0 268.4 171.9 271.0 C 167.7 273.7 162.0 276.0 156.3 277.3 C 150.6 278.5 143.7 278.8 137.6 278.3 C 131.6 277.9 125.3 276.3 120.0 274.7 C 114.7 273.1 110.2 270.6 106.1 268.6 C 102.0 266.5 98.9 264.3 95.5 262.5 C 92.1 260.7 89.2 259.3 85.6 257.9 C 81.9 256.5 78.0 255.6 73.8 254.1 C 69.5 252.7 64.4 251.4 60.0 249.3 C 55.7 247.3 50.7 244.8 47.4 241.9 C 44.1 239.1 41.1 235.5 40.0 232.0 C 38.9 228.5 39.2 224.5 40.8 221.2 C 42.4 217.8 45.8 214.4 49.5 211.6 C 53.2 208.9 58.4 206.7 63.1 204.8 C 67.9 202.9 73.2 201.7 78.0 200.4 C 82.8 199.1 87.5 198.3 92.1 197.2 C 96.7 196.1 100.9 195.1 105.6 194.1 C 110.2 193.1 114.9 191.9 120.0 191.2 C 125.1 190.5 130.6 189.8 136.0 189.9 C 141.4 190.0 147.3 190.5 152.3 191.8 C 157.3 193.0 162.3 195.0 166.0 197.4 C 169.8 199.7 172.8 202.8 175.0 205.7 C 177.1 208.6 178.1 212.0 178.9 215.0 C 179.7 218.0 179.6 221.0 180.0 223.8 C 180.3 226.6 180.4 229.2 180.9 232.0 Z" stroke="#1B3A59" stroke-width="1.1" stroke-opacity="0.7"/>
<path class="contour2" d="M 175.3 232.0 C 176.2 234.4 176.2 237.2 174.9 239.5 C 173.7 241.8 170.9 244.2 167.8 245.8 C 164.7 247.5 160.3 248.6 156.3 249.4 C 152.4 250.1 147.9 250.2 144.4 250.3 C 140.8 250.5 137.6 250.2 134.8 250.4 C 132.0 250.7 130.0 251.0 127.6 251.9 C 125.1 252.7 123.1 254.2 120.0 255.6 C 116.9 257.0 113.4 259.0 109.2 260.3 C 105.0 261.6 99.7 263.0 94.9 263.3 C 90.0 263.6 84.2 263.3 79.9 262.2 C 75.6 261.0 71.5 258.8 69.2 256.3 C 66.9 253.9 65.9 250.5 66.1 247.6 C 66.4 244.6 68.5 241.3 70.7 238.8 C 72.8 236.2 76.4 233.9 79.0 232.0 C 81.7 230.1 84.6 228.8 86.4 227.4 C 88.3 226.0 89.3 224.9 90.1 223.4 C 90.8 221.8 90.5 220.1 90.9 218.1 C 91.2 216.0 91.1 213.4 92.2 211.1 C 93.3 208.7 94.9 206.0 97.5 204.0 C 100.0 202.0 103.7 200.0 107.5 199.1 C 111.2 198.1 116.0 197.8 120.0 198.2 C 124.0 198.5 128.3 199.8 131.8 201.1 C 135.2 202.4 138.1 204.5 140.7 206.2 C 143.3 207.9 145.2 209.8 147.4 211.4 C 149.6 213.0 151.5 214.4 153.9 215.8 C 156.3 217.2 159.0 218.4 161.7 220.0 C 164.4 221.5 167.6 223.2 169.9 225.2 C 172.1 227.2 174.5 229.6 175.3 232.0 Z" stroke="#224A70" stroke-width="1.1" stroke-opacity="0.7"/>
<path class="contour2" d="M 140.7 232.0 C 138.9 233.0 137.6 233.5 137.0 234.3 C 136.4 235.2 137.1 235.9 137.3 237.0 C 137.6 238.1 138.5 239.5 138.5 240.9 C 138.6 242.2 138.4 243.9 137.6 245.2 C 136.8 246.6 135.3 247.9 133.6 249.0 C 131.9 250.0 129.7 250.9 127.5 251.6 C 125.2 252.2 122.5 252.8 120.0 252.9 C 117.5 253.0 114.6 253.0 112.2 252.4 C 109.9 251.8 107.4 250.8 105.9 249.5 C 104.4 248.2 103.5 246.3 103.2 244.6 C 103.0 242.9 103.9 240.9 104.4 239.5 C 104.9 238.0 106.2 236.9 106.1 236.0 C 106.0 235.1 105.5 234.9 103.7 234.2 C 102.0 233.6 98.5 233.2 95.5 232.0 C 92.4 230.8 87.8 229.1 85.3 227.2 C 82.8 225.3 80.5 222.5 80.5 220.6 C 80.6 218.6 82.7 216.4 85.6 215.5 C 88.5 214.7 93.8 214.7 98.0 215.4 C 102.1 216.1 107.1 218.4 110.3 220.0 C 113.6 221.5 115.7 224.0 117.3 224.9 C 118.9 225.9 118.9 226.3 120.0 225.7 C 121.1 225.1 121.8 223.1 124.0 221.4 C 126.3 219.6 129.7 216.8 133.3 215.4 C 136.9 214.0 142.0 212.8 145.5 212.8 C 148.9 212.9 152.6 214.2 154.1 215.7 C 155.6 217.2 155.5 220.0 154.5 222.0 C 153.5 224.1 150.5 226.5 148.2 228.1 C 145.9 229.8 142.6 231.0 140.7 232.0 Z" stroke="#2C5D8C" stroke-width="1.1" stroke-opacity="0.7"/>
<path id="orbit" d="M -60 210 C 180 30, 520 235, 920 55" stroke="#5E9FE8" stroke-opacity="0.28" stroke-width="1" stroke-dasharray="2 6"/>
<g>
<g>
<circle r="3.2" fill="#5E9FE8"/>
<circle r="8" fill="none" stroke="#5E9FE8" stroke-opacity="0.5" stroke-width="1" class="pulse"/>
<rect x="-9" y="-1.4" width="5" height="2.8" rx="0.8" fill="#5E9FE8" fill-opacity="0.85"/>
<rect x="4" y="-1.4" width="5" height="2.8" rx="0.8" fill="#5E9FE8" fill-opacity="0.85"/>
<animateMotion dur="16s" repeatCount="indefinite" rotate="auto"><mpath href="#orbit"/></animateMotion>
</g>
</g>
<g transform="translate(645 128)">
<circle r="4" fill="#72BC8F"/>
<circle r="4" fill="none" stroke="#72BC8F" stroke-width="1.4">
<animate attributeName="r" values="4;15" dur="2.4s" repeatCount="indefinite"/>
<animate attributeName="stroke-opacity" values="0.8;0" dur="2.4s" repeatCount="indefinite"/>
</circle>
</g>
<g stroke="#5E9FE8" stroke-opacity="0.4" stroke-width="1" transform="translate(795 195)">
<circle r="10" fill="none"/>
<line x1="-16" y1="0" x2="-6" y2="0"/><line x1="6" y1="0" x2="16" y2="0"/>
<line x1="0" y1="-16" x2="0" y2="-6"/><line x1="0" y1="6" x2="0" y2="16"/>
</g>
<text x="48" y="104" font-size="36" font-weight="700" fill="#FFFFFF" letter-spacing="0.5">Mohammad Pooshesh</text>
<text class="mono" x="48" y="134" font-size="15" fill="#9FB6CC">AI Engineer · GeoAI · RAG · Knowledge Graphs · MCP</text>
<text class="mono" x="48" y="166" font-size="12" fill="#5E9FE8" fill-opacity="0.85">$ locate mohammad --crs EPSG:4326</text>
<text class="mono" x="48" y="184" font-size="12" fill="#72BC8F" fill-opacity="0.9">&gt; 31.8974° N, 54.3569° E — Yazd</text>
<rect x="316" y="174" width="7" height="12" fill="#72BC8F"><animate attributeName="opacity" values="1;0;1" dur="1.2s" repeatCount="indefinite"/></rect>
<text class="mono" x="760" y="230" font-size="9" fill="#5E9FE8" fill-opacity="0.45">EPSG:4326</text>
</g>
<rect x="0.5" y="0.5" width="849" height="239" rx="12" stroke="#FFFFFF" stroke-opacity="0.08"/>
</svg>
